<svg enable-background="new 0 0 512 512" viewBox="0 0 512 512" xmlns="http://www.w3.org/2000/svg">
	<path d="m237.67 141.7c-4.142 0-7.5 3.358-7.5 7.5v21.717c0 4.142 3.358 7.5 7.5 7.5s7.5-3.358 7.5-7.5v-21.717c0-4.142-3.358-7.5-7.5-7.5z"/>
	<path d="m328.74 178.42c4.142 0 7.5-3.358 7.5-7.5v-21.717c0-4.142-3.358-7.5-7.5-7.5s-7.5 3.358-7.5 7.5v21.717c0 4.142 3.358 7.5 7.5 7.5z"/>
	<path d="m278.174 208.691c1.435 1.296 3.233 1.935 5.025 1.935 2.047 0 4.087-.833 5.567-2.472 2.777-3.073 2.537-7.816-.537-10.593l-8.067-7.289 9.87-21.768c1.71-3.772.039-8.217-3.733-9.928-3.773-1.71-8.217-.04-9.928 3.733l-12.132 26.757c-1.348 2.972-.619 6.475 1.803 8.662z"/>
	<path d="m302.93 248.4c4.142 0 7.5-3.358 7.5-7.5s-3.358-7.5-7.5-7.5h-39.463c-4.142 0-7.5 3.358-7.5 7.5s3.358 7.5 7.5 7.5z"/>
	<path d="m442.8 295.12h-25.798c-4.142 0-7.5 3.358-7.5 7.5s3.358 7.5 7.5 7.5h25.798c20.678 0 37.5 16.822 37.5 37.5v146.88c0 1.378-1.122 2.5-2.5 2.5h-24.049v-38.608c0-6.893-5.607-12.5-12.5-12.5h-15.97v-8.69c0-4.142-3.358-7.5-7.5-7.5s-7.5 3.358-7.5 7.5v8.69h-53.271c-6.893 0-12.5 5.607-12.5 12.5v38.608h-27.994l-9.006-135.49 9.638-19.19 9.947 7.898c3.79 3.009 8.851 3.571 13.208 1.468 4.358-2.104 7.065-6.417 7.065-11.257v-30.305h34.634c4.142 0 7.5-3.358 7.5-7.5s-3.358-7.5-7.5-7.5h-34.634v-13.552c19.655-11.741 33.909-31.616 38.082-54.944h10.628c20.678 0 37.5-16.822 37.5-37.5v-12.007c0-13.177-6.838-24.78-17.145-31.47v-62.26c0-45.981-37.409-83.39-83.39-83.39h-170.51c-6.925 0-12.559 5.634-12.559 12.559v10.007c0 17.412 5.871 33.95 15.998 47.308-10.194 10.618-15.998 24.766-15.998 40.076v35.699c-10.307 6.69-17.145 18.293-17.145 31.47v12.009c0 20.678 16.822 37.5 37.5 37.5h10.628c4.174 23.328 18.427 43.203 38.082 54.944v13.552h-95.432c-28.949 0-52.5 23.551-52.5 52.5v49.376h-41.903c-6.893 0-12.5 5.607-12.5 12.5v90c0 6.893 5.607 12.5 12.5 12.5h448.6c9.649 0 17.5-7.851 17.5-17.5v-146.88c-1e-3 -28.949-23.552-52.5-52.501-52.5zm-110.43 40.127-42.637-33.857c-3.844-3.05-9.212-3.05-13.058 1e-3l-42.635 33.855v-46.714c8.206 2.828 16.999 4.385 26.153 4.385h46.023c9.154 0 17.947-1.557 26.153-4.385v46.715zm86.211-158.13v12.009c0 12.407-10.093 22.5-22.5 22.5h-9.363v-57.009h9.363c12.406 0 22.5 10.093 22.5 22.5zm-253.6-154.55v-7.566h168.07c37.71 0 68.39 30.68 68.39 68.39v56.618c-1.75-0.251-3.536-0.388-5.355-0.388h-9.363v-16.221c0-20.678-16.822-37.5-37.5-37.5h-45.31c-11.698-6.953-19.558-19.714-19.558-34.282 0-4.142-3.358-7.5-7.5-7.5s-7.5 3.358-7.5 7.5c0 12.969 4.544 24.884 12.099 34.282h-22.184c-11.698-6.953-19.558-19.714-19.558-34.282 0-4.142-3.358-7.5-7.5-7.5s-7.5 3.358-7.5 7.5c0 12.969 4.544 24.884 12.099 34.282h-19.611c-0.096 0-0.19 7e-3 -0.285 7e-3l-10.724-3.998c-24.648-9.189-41.209-33.036-41.209-59.342zm14.718 189.06h-9.363c-12.407 0-22.5-10.093-22.5-22.5v-12.008c0-12.407 10.093-22.5 22.5-22.5h9.363zm0-88.23v16.221h-9.363c-1.818 0-3.605 0.137-5.355 0.388v-30.057c0-11.015 4.04-21.226 11.181-29.017 5.522 4.957 11.776 9.16 18.629 12.414-9.155 6.845-15.092 17.768-15.092 30.051zm15 89.024v-89.024c0-12.407 10.093-22.5 22.5-22.5h132.02c12.407 0 22.5 10.093 22.5 22.5v89.024c0 36.117-29.383 65.5-65.5 65.5h-46.023c-36.117 0-65.5-29.383-65.5-65.5zm-11.066 284.58h-151.92v-10h151.92zm0-25h-151.92v-10h151.92zm0-50h-28.624c-4.142 0-7.5 3.358-7.5 7.5s3.358 7.5 7.5 7.5h28.624v10h-151.92v-10h88.298c4.142 0 7.5-3.358 7.5-7.5s-3.358-7.5-7.5-7.5h-88.298v-10h151.92zm81.298 75 2.491-37.479c0.275-4.133-2.853-7.707-6.986-7.981-4.134-0.271-7.707 2.853-7.981 6.986l-2.557 38.474h-51.265v-87.5c0-6.893-5.607-12.5-12.5-12.5h-100.02v-49.376c0-20.678 16.822-37.5 37.5-37.5h95.432v30.305c0 4.839 2.707 9.152 7.065 11.257 1.748 0.844 3.609 1.259 5.457 1.259 2.757 0 5.482-0.925 7.751-2.727l9.947-7.899 9.638 19.19-4.127 62.081c-0.275 4.133 2.853 7.706 6.986 7.981 4.132 0.274 7.707-2.853 7.981-6.986l3.797-57.117h19.338l8.611 129.53zm30.341-144.53h-24.122l-9.883-19.678 21.945-17.426 21.945 17.426zm143.49 144.53h-79.241v-36.108h50.771v10.713c0 4.142 3.358 7.5 7.5 7.5s7.5-3.358 7.5-7.5v-10.713h13.47z"/>
</svg>