<svg width="496pt" height="496pt" viewBox="0 0 496 496" xmlns="http://www.w3.org/2000/svg">
	<path d="m372.45 69.488-33.945-33.945-23.703 15.426c-11.289-6.9375-23.711-12.16-36.961-15.328l-5.8398-27.641h-48l-5.8477 27.641c-13.25 3.168-25.672 8.3906-36.961 15.328l-23.703-15.426-33.945 33.945 12.289 29.312 1.168 61.199h15c0-53.016 42.984-96 96-96s96 42.984 96 96h16l-0.0625-61.199z" fill="#fcd770"/>
	<path d="m128.18 80.543 7.6562 18.258 0.16016 61.199h16c0-20.617 6.5586-39.672 17.625-55.312-10.145-12.91-24.809-21.926-41.441-24.145z" fill="#ffc729"/>
	<path d="m367.71 80.602c-16.832 2.1914-31.582 10.957-41.688 23.598 11.266 15.738 17.977 34.969 17.977 55.801h16l-0.0625-61.199z" fill="#ffc729"/>
	<path d="m464 296v-39.016c0-14.68-9.9922-27.48-24.238-31.047l-39.762-9.9375-0.015625-14.465c14.344-8.3047 24.016-23.773 24.016-41.535v-13.984c0-26.281-20.258-49.199-46.52-49.992-27.184-0.81641-49.48 20.977-49.48 47.977v16c0 17.762 9.6641 33.223 24 41.527v14.473l-39.762 9.9453c-14.246 3.5586-24.238 16.359-24.238 31.039v39.016z" fill="#ccd1d9"/>
	<path d="m352 256.98c0-14.586-6.6172-27.785-17.215-36.68l-22.547 5.6406c-14.246 3.5586-24.238 16.359-24.238 31.039v39.016h64z" fill="#aab2bd"/>
	<path d="m208 296v-39.016c0-14.68-9.9922-27.48-24.238-31.047l-39.762-9.9375-0.015625-14.465c14.344-8.3047 24.016-23.773 24.016-41.535v-13.984c0-26.281-20.258-49.199-46.52-49.992-27.184-0.81641-49.48 20.977-49.48 47.977v16c0 17.762 9.6641 33.223 24 41.527v14.473l-39.762 9.9453c-14.246 3.5586-24.238 16.359-24.238 31.039v39.016z" fill="#ccd1d9"/>
	<path d="m208 256.98c0-14.688-9.9922-27.48-24.238-31.047l-22.547-5.6406c-10.598 8.9023-17.215 22.109-17.215 36.688v39.016h64z" fill="#aab2bd"/>
	<path d="m336 296v-39.016c0-14.68-9.9922-27.48-24.238-31.047l-39.762-9.9375-0.015625-14.465c14.344-8.3047 24.016-23.773 24.016-41.535v-13.984c0-26.281-20.258-49.199-46.52-49.992-27.184-0.81641-49.48 20.977-49.48 47.977v16c0 17.762 9.6641 33.223 24 41.527v14.473l-39.762 9.9453c-14.246 3.5586-24.238 16.359-24.238 31.039v39.016z" fill="#ccd1d9"/>
	<g fill="#aab2bd">
		<path d="m464 256.98c0-14.688-9.9922-27.48-24.238-31.047l-8.8164-2.2031-106.9 56.266h-1.8086l-34.238-9.7773v25.777h176z"/>
		<path d="m336 273.71-11.953 6.2891h-1.8086l-48.117-13.742c-4.2109-1.2109-8.5352-1.793-12.891-2.0352l-34.941-11.176c-10.473-3.3516-21.367-5.0469-32.379-5.0469-7.75 0-15.504 0.84766-23.199 2.5586l-10.367 2.4023c-0.17578 1.3281-0.34375 2.6562-0.34375 4.0234v39.016h176z"/>
		<path d="m170.71 250.56-34.711 8.043v-11.793l-48.977-28.57-30.785 7.6992c-14.246 3.5664-24.238 16.367-24.238 31.047v39.016h176v-39.016c0-2.8086-0.47266-5.5039-1.1602-8.1211-4.2812-0.51953-8.5938-0.86328-12.93-0.86328-7.7422 0-15.504 0.84766-23.199 2.5586z"/>
	</g>
	<path d="m338.5 387.05-67.602-60.84-12.863-46.215-36.625-11.711c-8.8867-2.8398-18.168-4.2891-27.504-4.2891-6.5898 0-13.156 0.71875-19.59 2.1523l-94.32 21.848-8 64 56.398 35.441 102.6 85.559 12.367 10.91c2.9844 2.6328 6.832 4.0898 10.816 4.0898h1.4727c9.0234 0 16.344-7.3203 16.344-16.344 0-4.8477-2.1523-9.4492-5.8789-12.559 3.8008 3.168 8.5898 4.9023 13.535 4.9023 9.0234 0 16.344-7.3203 16.344-16.344 0-4.8477-2.1523-9.4492-5.8789-12.559l-30.656-25.547 31.984 26.656c2.9414 2.4492 6.6484 3.793 10.473 3.793h1.7344c9.0234 0 16.344-7.3203 16.344-16.344 0-4.8477-2.1523-9.4492-5.8789-12.559l1.2617 1.0547c2.9844 2.4883 6.7461 3.8477 10.625 3.8477h1.3828c9.1758 0 16.609-7.4336 16.609-16.609 0-4.7031-2-9.1914-5.4961-12.336z" fill="#ecc19c"/>
	<path d="m338.5 387.05-67.602-60.84c-4.4375-4-10.215-6.2148-16.199-6.2148-4.3906 0-8.6953 1.1914-12.457 3.4492l-29.781 17.871c-2.9219 1.75-6.2656 2.6797-9.6719 2.6797-10.379 0-18.793-8.4141-18.793-18.793v-1.5898c0-7.1211 4.0234-13.625 10.391-16.809l44.633-22.312c5.9062-2.9609 12.418-4.4961 19.016-4.4961 3.9531 0 7.8906 0.55078 11.688 1.6406l50.273 14.359h8l152-80h8v104l-144 72z" fill="#f5e0cd"/>
	<path d="m248 400-11.121 11.566 44.336 36.945c3.793 3.1523 8.2656 5.2734 12.992 6.4414 1.1133-2.2109 1.793-4.6641 1.793-7.2969 0-4.8477-2.1523-9.4492-5.8789-12.559z" fill="#dfb28b"/>
	<path d="m200 463.03c0 9.3672 7.6016 16.969 16.969 16.969 4.5039 0 8.8164-1.7852 12-4.9688l14.055-14.055c3.1836-3.1836 4.9688-7.4961 4.9688-12 0.007812-9.375-7.5938-16.977-16.961-16.977-4.5039 0-8.8164 1.7852-12 4.9688l-14.055 14.055c-3.1914 3.1914-4.9766 7.5039-4.9766 12.008z" fill="#f5e0cd"/>
	<path d="m176 439.03c0 9.3672 7.6016 16.969 16.969 16.969 4.5039 0 8.8164-1.7852 12-4.9688l14.055-14.055c3.1836-3.1836 4.9688-7.4961 4.9688-12 0.007812-9.375-7.5938-16.977-16.961-16.977-4.5039 0-8.8164 1.7852-12 4.9688l-14.055 14.055c-3.1914 3.1914-4.9766 7.5039-4.9766 12.008z" fill="#f5e0cd"/>
	<path d="m152 415.03c0 9.3672 7.6016 16.969 16.969 16.969 4.5039 0 8.8164-1.7852 12-4.9688l14.055-14.055c3.1836-3.1836 4.9688-7.4961 4.9688-12 0.007812-9.375-7.5938-16.977-16.961-16.977-4.5039 0-8.8164 1.7852-12 4.9688l-14.055 14.055c-3.1914 3.1914-4.9766 7.5039-4.9766 12.008z" fill="#f5e0cd"/>
	<path d="m182.34 400.28c3.9922-3.9922 6.7344-9.0234 8.2656-14.418-2.2891-1.1523-4.8398-1.8633-7.5781-1.8633-4.5039 0-8.8164 1.7852-12 4.9688l-14.055 14.055c-3.1836 3.1836-4.9766 7.5039-4.9766 12.008 0 2.7383 0.71094 5.2891 1.8633 7.5781 5.3945-1.5312 10.434-4.2734 14.418-8.2656z" fill="#f0d0b4"/>
	<path d="m206.34 424.28c3.9922-3.9922 6.7344-9.0234 8.2656-14.418-2.2891-1.1523-4.8398-1.8633-7.5781-1.8633-4.5039 0-8.8164 1.7852-12 4.9688l-14.055 14.055c-3.1836 3.1836-4.9766 7.5039-4.9766 12.008 0 2.7383 0.71094 5.2891 1.8633 7.5781 5.3945-1.5312 10.434-4.2734 14.418-8.2656z" fill="#f0d0b4"/>
	<path d="m230.34 448.28c3.9922-3.9922 6.7344-9.0234 8.2656-14.418-2.2891-1.1523-4.8398-1.8633-7.5781-1.8633-4.5039 0-8.8164 1.7852-12 4.9688l-14.055 14.055c-3.1836 3.1836-4.9766 7.5039-4.9766 12.008 0 2.7383 0.71094 5.2891 1.8633 7.5781 5.3945-1.5312 10.434-4.2734 14.418-8.2656z" fill="#f0d0b4"/>
	<path d="m128 391.03c0 9.3672 7.6016 16.969 16.969 16.969 4.5039 0 8.8164-1.7852 12-4.9688l14.055-14.055c3.1836-3.1836 4.9688-7.4961 4.9688-12 0.007812-9.375-7.5938-16.977-16.961-16.977-4.5039 0-8.8164 1.7852-12 4.9688l-14.055 14.055c-3.1914 3.1914-4.9766 7.5039-4.9766 12.008z" fill="#f5e0cd"/>
	<path d="m133.31 275.65-53.312 12.352-8 64 33.488 21.039z" fill="#dfb28b"/>
	<path d="m120 264-32 112h-8l-72-24v-152h16l96 56z" fill="#e6e9ed"/>
	<path d="m88.527 237.64-64.527-37.641h-16v152l48 16 32-128z" fill="#b4dd7f"/>
	<path d="m272 376-11.121 11.566 44.336 36.945c3.793 3.1523 8.2656 5.2734 12.992 6.4414 1.1133-2.2109 1.793-4.6641 1.793-7.2969 0-4.8477-2.1523-9.4492-5.8789-12.559z" fill="#dfb28b"/>
	<path d="m496 208h-17.977l-26.793 14.098c-3.0156-1.6641-6.1523-3.0742-9.5352-3.9219l-33.703-8.4336v-3.832c14.91-10.406 24.008-27.598 24.008-45.91v-13.984c0-31.078-24.352-57.086-54.281-57.992-1.5195-0.039063-3.0156 0.015624-4.5195 0.089843l8.7383-20.457-42.363-42.352-24.973 16.254c-9.4883-5.3438-19.523-9.5039-29.945-12.422l-6.168-29.137h-60.969l-6.168 29.145c-10.422 2.918-20.465 7.0781-29.945 12.422l-24.973-16.254-42.328 42.328 8.5898 20.473c-0.32812-0.015625-0.64062-0.074219-0.96875-0.082031-15.32-0.44531-29.75 5.1445-40.711 15.785-10.977 10.633-17.016 24.902-17.016 40.184v16c0 18.312 9.0898 35.496 24 45.902v3.8398l-21.984 5.4961-39.848-23.238h-26.168v165.77l78.703 26.23h15.328l1.9141-6.7031 24.125 14.48c0.39453 13.117 10.914 23.672 24.02 24.133 0.46094 13.051 10.949 23.539 24 24 0.46094 13.051 10.949 23.539 24 24 0.47656 13.355 11.414 24.09 24.879 24.09 5 0 9.9023-1.5586 14.023-4.3359l7.0859 6.2578c4.4414 3.9102 10.16 6.0781 16.098 6.0781h1.4805c13.312 0 24.145-10.762 24.312-24.031 13.168-0.16797 23.832-10.832 24-24 13.176-0.16797 23.848-10.848 24-24.023 13.297-0.3125 24.031-11.176 24.031-24.547 0-0.80469-0.039062-1.5977-0.12109-2.3984l144.12-72.055zm-80-61.984v13.984c0 14.199-7.6719 27.465-20.023 34.617l-4 2.3125 0.03125 25.316 39.969 9.9844-87.977 46.305v-21.551c0-10.754-4.3438-20.602-11.457-27.879l27.457-6.8594v-25.336l-3.9922-2.3086c-12.344-7.1367-20.008-20.402-20.008-34.602v-16c0-10.91 4.3125-21.113 12.152-28.711 7.832-7.5938 18.223-11.688 29.086-11.266 21.371 0.64062 38.762 19.48 38.762 41.992zm-155.94 126.23-36.215-11.574c-16.504-5.2891-34.367-6.0781-51.262-2.3359l-4.5859 1.0156v-2.3672c0-11.031 7.4805-20.609 18.176-23.289l45.824-11.449v-25.336l-3.9922-2.3086c-12.344-7.1367-20.008-20.402-20.008-34.602v-16c0-10.91 4.3125-21.113 12.152-28.711 7.832-7.5938 18.289-11.688 29.086-11.266 21.371 0.64062 38.762 19.48 38.762 41.992v13.984c0 14.199-7.6719 27.465-20.023 34.617l-4 2.3125 0.03125 25.316 45.816 11.449c10.695 2.6797 18.176 12.258 18.176 23.289v29.977l-1.9766 1.0391h-4.9023l-49.184-14.055c-3.875-1.0977-7.8672-1.5469-11.875-1.6992zm-90.27-152.51c15.023-29.109 45.262-47.734 78.207-47.734 32.633 0 62.742 18.375 77.879 47.09-3.8086 7.6367-5.8789 16.094-5.8789 24.91v16c0 18.312 9.0898 35.496 24 45.902v3.8398l-32 8.0117-32.008-8.0117v-3.832c14.91-10.406 24.008-27.598 24.008-45.91v-13.984c0-31.078-24.352-57.086-54.281-57.992-15.312-0.44922-29.75 5.1445-40.711 15.785-10.969 10.641-17.008 24.91-17.008 40.191v16c0 18.312 9.0898 35.496 24 45.902v3.8398l-32 8.0117-32.008-8.0117v-3.832c14.91-10.406 24.008-27.598 24.008-45.91v-13.984c0-9.4141-2.2656-18.352-6.207-26.281zm-36.793-48.383 25.559-25.559 22.496 14.641 4.3047-2.6406c10.785-6.6094 22.441-11.449 34.641-14.367l4.9219-1.1797 5.5664-26.246h35.031l5.5508 26.238 4.9219 1.1758c12.199 2.9219 23.855 7.7617 34.641 14.371l4.3047 2.6406 22.496-14.641 25.527 25.535-9.0742 21.246c-6.1758 2.6562-11.902 6.3945-16.887 11.227-0.32812 0.32031-0.60938 0.66406-0.92969 0.99219-18.848-29.961-52.168-48.785-88.07-48.785-36.16 0-69.574 19-88.375 49.266-5.0312-5.2656-11.016-9.5312-17.648-12.512zm-29 150.89v-25.336l-3.9922-2.3086c-12.344-7.1367-20.008-20.402-20.008-34.602v-16c0-10.91 4.3125-21.113 12.152-28.711 7.832-7.5938 18.246-11.688 29.086-11.266 21.371 0.64062 38.762 19.48 38.762 41.992v13.984c0 14.199-7.6719 27.465-20.023 34.617l-4 2.3125 0.03125 25.316 27.449 6.8594c-7.1133 7.2773-11.457 17.125-11.457 27.879v5.9258l-24.953 5.5469 0.64844-2.2656 0.30469-14.785-42.191-24.613zm-88-14.246h5.832l57.535 33.559-29.031 116.12-34.336-11.449zm65.297 160-15.746-5.2461 28.203-112.8 18.246 10.641v2.2852l-30.031 105.12zm54.703 23.031c0-2.3594 0.95312-4.6719 2.625-6.3438l14.062-14.062c1.6719-1.6719 3.9844-2.625 6.3438-2.625 4.9453 0 8.9688 4.0234 8.9688 8.9688 0 2.3594-0.95312 4.6719-2.625 6.3438l-14.062 14.062c-1.6719 1.6719-3.9844 2.625-6.3438 2.625-4.9453 0-8.9688-4.0234-8.9688-8.9688zm24 24c0-2.3594 0.95312-4.6719 2.625-6.3438l14.062-14.062c1.6719-1.6719 3.9844-2.625 6.3438-2.625 4.9453 0 8.9688 4.0234 8.9688 8.9688 0 2.3594-0.95312 4.6719-2.625 6.3438l-14.062 14.062c-1.6719 1.6719-3.9844 2.625-6.3438 2.625-4.9453 0-8.9688-4.0234-8.9688-8.9688zm24 24c0-2.3594 0.95312-4.6719 2.625-6.3438l14.062-14.062c1.6719-1.6719 3.9844-2.625 6.3438-2.625 4.9453 0 8.9688 4.0234 8.9688 8.9688 0 2.3594-0.95312 4.6719-2.625 6.3438l-14.062 14.062c-1.6719 1.6719-3.9844 2.625-6.3438 2.625-4.9453 0-8.9688-4.0234-8.9688-8.9688zm32.969 32.969c-4.9453 0-8.9688-4.0234-8.9688-8.9688 0-2.3594 0.95312-4.6719 2.625-6.3438l14.062-14.062c1.6719-1.6719 3.9844-2.625 6.3438-2.625 4.9453 0 8.9688 4.0234 8.9688 8.9688 0 2.3594-0.95312 4.6719-2.625 6.3438l-14.062 14.062c-1.6719 1.6719-3.9844 2.625-6.3438 2.625zm38.688 8h-1.4805c-2.0391 0-3.9922-0.74219-5.5117-2.0898l-5.9844-5.2773 6.0078-6.0078c2.1445-2.1445 3.8086-4.6953 5.0391-7.4336l7.2734 6.0547c1.9023 1.5859 3 3.9219 3 6.4102 0 4.6016-3.7422 8.3438-8.3438 8.3438zm71.742-72h-1.3828c-2.0078 0-3.9688-0.71094-5.5039-2l-43.383-36.152-10.25 12.297 42.129 35.102c1.8945 1.5859 2.9922 3.9219 2.9922 6.4102 0 4.6016-3.7422 8.3438-8.3438 8.3438h-1.7461c-1.9414 0-3.8398-0.6875-5.3359-1.9375l-43.453-36.207-10.25 12.297 42.129 35.105c1.9023 1.5742 3 3.9102 3 6.3984 0 4.6016-3.7422 8.3438-8.3438 8.3438-3.0703 0-6.0625-1.0898-8.418-3.0469l-17.855-14.883c-3.9336-8.0391-12.016-13.645-21.48-13.98-0.46094-13.051-10.949-23.539-24-24-0.46094-13.051-10.949-23.539-24-24-0.46875-13.355-11.406-24.09-24.871-24.09-6.5742 0-13.008 2.6641-17.656 7.3125l-14.062 14.062c-0.83984 0.83984-1.5352 1.793-2.2422 2.7383l-24.574-14.746 21.543-75.398 54.008-12.008c14.168-3.168 29.105-2.4805 42.922 1.9414l11.785 3.7695-39.953 19.977c-9.1289 4.5742-14.801 13.758-14.801 23.969v1.582c0 14.777 12.023 26.801 26.801 26.801 4.8555 0 9.6328-1.3203 13.785-3.8242l29.789-17.863c5.9844-3.5859 14.016-2.8008 19.184 1.8477l67.594 60.832c1.8086 1.6406 2.8477 3.9688 2.8477 6.4062 0 4.7461-3.8555 8.6016-8.6016 8.6016zm152.6-92.945-134.78 67.395c-0.4375-0.46484-0.89453-0.90625-1.375-1.3359l-67.582-60.832c-5.9219-5.3438-13.578-8.2812-21.555-8.2812-5.832 0-11.559 1.5859-16.574 4.5938l-29.801 17.871c-1.6719 1.0078-3.582 1.5352-5.5352 1.5352-5.9609 0-10.801-4.8398-10.801-10.801v-1.582c0-4.1211 2.2891-7.8164 5.9688-9.6562l44.625-22.312c7.6367-3.8242 16.703-4.6797 24.934-2.3125l50.273 14.359 12.176 0.30469 150.02-78.961z"/>
</svg>