<svg viewBox="-35 1 511 511.999" xmlns="http://www.w3.org/2000/svg">
	<path d="m271.05 180c5.5195 0 10-4.4805 10-10s-4.4805-10-10-10c-5.5312 0-10 4.4805-10 10s4.4688 10 10 10z"/>
	<path d="m171.05 180c5.5195 0 10-4.4805 10-10s-4.4805-10-10-10c-5.5312 0-10 4.4805-10 10s4.4688 10 10 10z"/>
	<path d="m194.32 248.73c8.3945 3.957 17.391 5.9648 26.73 5.9648 9.1367 0 17.957-1.9258 26.219-5.7227 5.0195-2.3086 7.2148-8.2461 4.9102-13.266-2.3086-5.0156-8.2461-7.2148-13.266-4.9062-5.6211 2.582-11.633 3.8945-17.863 3.8945-6.3711 0-12.496-1.3633-18.203-4.0547-4.9961-2.3555-10.957-0.21484-13.309 4.7812-2.3555 4.9961-0.21484 10.953 4.7812 13.309z"/>
	<path d="m441.59 405.77c0-54.988-62.625-98.113-116.3-100.16l-27.387-24.605c33.355-24.336 53.602-63.445 53.602-105.01v-66c0-60.652-49.504-110-110.35-110h-40c-60.766 0-109.65 49.172-109.65 110v66c0 41.492 19.977 80.527 52.898 104.82l-27.594 24.793c-53.562 2.0391-116.3 45.055-116.3 100.16v96.23c0 5.5234 4.4766 10 10 10h421.09c5.5234 0 10-4.4766 10-10zm-242.7 40.23h44.246l10.484 46h-65.52zm45.105-20h-45.738l-7.6719-23.902 30.461-15.23 31.113 15.562zm-22.953-69.18-34.75-55.59c11.285 3.1367 23.012 4.7656 34.852 4.7656 11.727 0 23.367-1.5977 34.594-4.6836zm14.312 14.844 48.012-76.824 25.895 23.266-32.949 74.043zm-34.211-351.66h40c49.82 0 90.352 40.371 90.352 90v8.2656l-18.777-27.039c-1.6992-2.4492-4.4062-4.0117-7.3789-4.2617-2.9766-0.25-5.8984 0.83984-7.9844 2.9727-20.328 20.789-43.863 30.062-76.309 30.062-32.441 0-55.98-9.2734-76.324-30.062-2.0938-2.1445-5.043-3.2305-8.0234-2.9688-2.9844 0.26172-5.6953 1.8477-7.3828 4.3242l-17.82 26.113v-7.4062c0-49.629 40.215-90 89.648-90zm-89.648 156v-23.113l27.773-40.699c22.25 18.926 48.543 27.812 81.777 27.812 33.27 0 59.582-8.9062 81.836-27.871l28.613 41.203v22.668c0 59.887-48.949 110-110.35 110-61.203 0-109.65-49.957-109.65-110zm47.219 118.84 48.02 76.82-40.965 20.484-32.949-74.043zm-138.22 110.93c0-41.195 50.078-76.766 93.84-80l37.414 84.066c1.1094 2.4922 3.1914 4.4258 5.7617 5.3477s5.4023 0.75 7.8477-0.46875l7.125-3.5664 8.1133 25.266-13.039 55.586h-147.06zm401.09 86.23h-147.45l-12.633-55.434 8.6992-25.117 6.5234 3.2656c2.4609 1.2305 5.3008 1.3828 7.8477 0.46875 2.5703-0.92188 4.6523-2.8555 5.7617-5.3477l37.414-84.066c43.762 3.2383 93.84 38.805 93.84 80z"/>
	<path d="m351.05 446h-40c-5.5234 0-10 4.4766-10 10s4.4766 10 10 10h40c5.5234 0 10-4.4766 10-10s-4.4766-10-10-10z"/>
	<path d="m390.5 446c5.5195 0 10 4.4805 10 10s-4.4805 10-10 10-10-4.4805-10-10 4.4805-10 10-10z"/>
</svg>