<svg width="512" height="512" viewBox="0 0 64 64" xmlns="http://www.w3.org/2000/svg">
	<g data-name="money 路 ecommerce 路 shopping 路 buy 路 bag">
		<path d="M24,52H22a1,1,0,0,1-1-1,1,1,0,0,0-2,0,3,3,0,0,0,3,3v1a1,1,0,0,0,2,0V54a3,3,0,0,0,0-6H22a1,1,0,0,1,0-2h2a1,1,0,0,1,1,1,1,1,0,0,0,2,0,3,3,0,0,0-3-3V43a1,1,0,0,0-2,0v1a3,3,0,0,0,0,6h2a1,1,0,0,1,0,2Z"/>
		<path d="M61,14H56V13A10.987,10.987,0,0,0,40,3.21,10.987,10.987,0,0,0,24,13v1H15a1,1,0,0,0-1,1V32H7a1,1,0,0,0-1,1v3H3a1,1,0,0,0-1,1V61a1,1,0,0,0,1,1H43a1,1,0,0,0,1-1V58h3a1,1,0,0,0,1-1V56h7a7.008,7.008,0,0,0,7-7V15A1,1,0,0,0,61,14ZM45,4a9.014,9.014,0,0,1,9,9v1H46V13a10.988,10.988,0,0,0-4-8.48A9.048,9.048,0,0,1,45,4Zm0,19a1,1,0,0,0,1-1V20.28a2,2,0,1,1-2,0V22A1,1,0,0,0,45,23ZM40,5.52A9.01,9.01,0,0,1,44,13v1H36V13A9.01,9.01,0,0,1,40,5.52ZM26,13A8.987,8.987,0,0,1,38,4.52,10.988,10.988,0,0,0,34,13v1H26ZM25,23a1,1,0,0,0,1-1V20.28a2,2,0,1,1-2,0V22A1,1,0,0,0,25,23ZM4,38H9.92A7,7,0,0,1,4,43.92ZM4,60V54.08A7,7,0,0,1,9.92,60Zm38,0H36.08A7,7,0,0,1,42,54.08Zm0-7.94A9.013,9.013,0,0,0,34.06,60H11.94A9.013,9.013,0,0,0,4,52.06V45.94A9.013,9.013,0,0,0,11.94,38H34.06A9.013,9.013,0,0,0,42,45.94Zm0-8.14A7,7,0,0,1,36.08,38H42ZM46,56H44V37a1,1,0,0,0-1-1H8V34H46Zm3-2H48V33a1,1,0,0,0-1-1H16V16h8v2.14a4,4,0,1,0,2,0V16H44v2.14a4,4,0,1,0,2,0V16h8V49A5,5,0,0,1,49,54Zm11-5a5,5,0,0,1-5,5H53.89A6.97,6.97,0,0,0,56,49V16h4Z"/>
		<path d="M32,50h4a1,1,0,0,0,0-2H32a1,1,0,0,0,0,2Z"/>
		<path d="M9,49a1,1,0,0,0,1,1h4a1,1,0,0,0,0-2H10A1,1,0,0,0,9,49Z"/>
	</g>
</svg>